<svg xmlns="http://www.w3.org/2000/svg" fill="none" viewBox="0 0 139 120">
    <path fill="#fff" d="M137.542 90.563 73.808 2.241c-2.006-2.757-6.632-2.757-8.617 0L1.456 90.563a5.318 5.318 0 0 0-.998 3.101 5.331 5.331 0 0 0 3.642 5.05l63.735 20.851h.01a5.31 5.31 0 0 0 3.293 0h.01l63.735-20.85a5.265 5.265 0 0 0 3.393-3.406 5.244 5.244 0 0 0-.749-4.746h.015Zm-68.04-76.151 25.545 35.403-23.889-7.813c-.184-.06-.38-.05-.564-.094a3.488 3.488 0 0 0-.549-.09c-.184-.025-.359-.095-.543-.095-.185 0-.355.07-.54.095-.184.02-.368.05-.548.09-.19.035-.384.035-.554.094L44.115 49.77l-.15.05L69.513 14.41h-.01ZM33.408 64.438l27.811-9.104 2.969-.967v52.838L14.324 90.887l19.084-26.449Zm41.412 42.757V54.367l30.78 10.071 19.085 26.434-49.87 16.323h.005Z"/>
</svg>
